<svg width="23" height="20" viewBox="0 0 23 20" fill="none" xmlns="http://www.w3.org/2000/svg">
<mask id="path-1-inside-1_3105_3099" fill="white">
<path d="M1.43354 0C0.641819 0 0 0.64182 0 1.43354C0 2.22527 0.64182 2.86709 1.43354 2.86709H21.5665C22.3582 2.86709 23 2.22527 23 1.43354C23 0.64182 22.3582 0 21.5665 0H1.43354ZM1.43354 8.51525C0.641819 8.51525 0 9.15707 0 9.9488C0 10.7405 0.64182 11.3823 1.43354 11.3823H21.5665C22.3582 11.3823 23 10.7405 23 9.9488C23 9.15707 22.3582 8.51525 21.5665 8.51525H1.43354ZM1.43354 17.1165C0.641819 17.1165 0 17.7583 0 18.5501C0 19.3418 0.64182 19.9836 1.43354 19.9836H21.5665C22.3582 19.9836 23 19.3418 23 18.5501C23 17.7583 22.3582 17.1165 21.5665 17.1165H1.43354Z"/>
</mask>
<path d="M1.43354 0C0.641819 0 0 0.64182 0 1.43354C0 2.22527 0.64182 2.86709 1.43354 2.86709H21.5665C22.3582 2.86709 23 2.22527 23 1.43354C23 0.64182 22.3582 0 21.5665 0H1.43354ZM1.43354 8.51525C0.641819 8.51525 0 9.15707 0 9.9488C0 10.7405 0.64182 11.3823 1.43354 11.3823H21.5665C22.3582 11.3823 23 10.7405 23 9.9488C23 9.15707 22.3582 8.51525 21.5665 8.51525H1.43354ZM1.43354 17.1165C0.641819 17.1165 0 17.7583 0 18.5501C0 19.3418 0.64182 19.9836 1.43354 19.9836H21.5665C22.3582 19.9836 23 19.3418 23 18.5501C23 17.7583 22.3582 17.1165 21.5665 17.1165H1.43354Z" fill="#8E59FF"/>
<path d="M1.43354 28.5501H21.5665V-22.8159H1.43354V28.5501ZM21.5665 -25.683H1.43354V25.683H21.5665V-25.683ZM1.43354 37.0653H21.5665V-14.3007H1.43354V37.0653ZM21.5665 -17.1677H1.43354V34.1982H21.5665V-17.1677ZM1.43354 45.6666H21.5665V-5.69939H1.43354V45.6666ZM21.5665 -8.56648H1.43354V42.7995H21.5665V-8.56648ZM48.683 18.5501C48.683 3.57401 36.5425 -8.56648 21.5665 -8.56648V42.7995C8.17385 42.7995 -2.683 31.9427 -2.683 18.5501H48.683ZM21.5665 45.6666C36.5425 45.6666 48.683 33.5261 48.683 18.5501H-2.683C-2.683 5.15747 8.17384 -5.69939 21.5665 -5.69939V45.6666ZM-25.683 18.5501C-25.683 33.5261 -13.5425 45.6666 1.43354 45.6666V-5.69939C14.8261 -5.69939 25.683 5.15746 25.683 18.5501H-25.683ZM25.683 18.5501C25.683 31.9426 14.8262 42.7995 1.43354 42.7995V-8.56648C-13.5425 -8.56648 -25.683 3.57402 -25.683 18.5501H25.683ZM48.683 9.9488C48.683 -5.02726 36.5425 -17.1677 21.5665 -17.1677V34.1982C8.17385 34.1982 -2.683 23.3414 -2.683 9.9488H48.683ZM21.5665 37.0653C36.5425 37.0653 48.683 24.9248 48.683 9.9488H-2.683C-2.683 -3.44379 8.17384 -14.3007 21.5665 -14.3007V37.0653ZM-25.683 9.9488C-25.683 24.9249 -13.5425 37.0653 1.43354 37.0653V-14.3007C14.8261 -14.3007 25.683 -3.44381 25.683 9.9488H-25.683ZM25.683 9.9488C25.683 23.3414 14.8262 34.1982 1.43354 34.1982V-17.1677C-13.5425 -17.1677 -25.683 -5.02724 -25.683 9.9488H25.683ZM48.683 1.43354C48.683 -13.5425 36.5425 -25.683 21.5665 -25.683V25.683C8.17385 25.683 -2.683 14.8261 -2.683 1.43354H48.683ZM21.5665 28.5501C36.5425 28.5501 48.683 16.4096 48.683 1.43354H-2.683C-2.683 -11.959 8.17384 -22.8159 21.5665 -22.8159V28.5501ZM-25.683 1.43354C-25.683 16.4096 -13.5425 28.5501 1.43354 28.5501V-22.8159C14.8261 -22.8159 25.683 -11.9591 25.683 1.43354H-25.683ZM25.683 1.43354C25.683 14.8261 14.8262 25.683 1.43354 25.683V-25.683C-13.5425 -25.683 -25.683 -13.5425 -25.683 1.43354H25.683Z" fill="#8E59FF" mask="url(#path-1-inside-1_3105_3099)"/>
</svg>
