<svg width="16" height="12" viewBox="0 0 16 12" fill="none" xmlns="http://www.w3.org/2000/svg">
<path d="M0 3.44C0 3.3272 1.49012e-07 3.2704 0.0440001 3.2352C0.0880001 3.2 0.159 3.2 0.3 3.2H15.7C15.841 3.2 15.912 3.2 15.956 3.2352C16 3.2704 16 3.3272 16 3.44V8.8C16 10.3088 16 11.0624 15.414 11.5312C14.828 12 13.886 12 12 12H4C2.114 12 1.172 12 0.586 11.5312C-5.96046e-08 11.0624 0 10.3088 0 8.8V3.44ZM0.724 2.4C0.416 2.4 0.262 2.4 0.224 2.3256C0.185 2.252 0.294 2.1648 0.512 1.9896L1.828 0.9376C2.406 0.4752 2.696 0.2432 3.063 0.1216C3.431 -3.57628e-08 3.84 0 4.657 0H11.343C12.161 0 12.569 -3.57628e-08 12.937 0.1216C13.304 0.2432 13.593 0.4752 14.172 0.9376L15.488 1.9904C15.706 2.1648 15.815 2.252 15.776 2.3264C15.738 2.4 15.584 2.4 15.276 2.4H0.724Z" fill="#C4C4C4"/>
<path d="M6 6C6 6.55253 6.21949 7.08244 6.61019 7.47314C7.00089 7.86384 7.5308 8.08333 8.08333 8.08333C8.63587 8.08333 9.16577 7.86384 9.55647 7.47314C9.94717 7.08244 10.1667 6.55253 10.1667 6" stroke="#F5F5F7" stroke-width="0.833333" stroke-linecap="round"/>
</svg>
