<svg width="35" height="35" viewBox="0 0 35 35" fill="none" xmlns="http://www.w3.org/2000/svg">
<rect width="35" height="35" rx="10" fill="white"/>
<path d="M7.29004 18.2754C8.01335 17.4876 8.88704 17.0938 9.91113 17.0938C10.2907 17.0938 10.6559 17.1439 11.0068 17.2441C11.3649 17.3444 11.8161 17.4948 12.3604 17.6953C12.8903 17.8958 13.3343 18.0462 13.6924 18.1465C14.0505 18.2467 14.4157 18.2969 14.7881 18.2969C15.2894 18.2969 15.7549 18.1966 16.1846 17.9961C16.6214 17.7884 17.0081 17.4805 17.3447 17.0723V19.4141C16.6214 20.2018 15.7477 20.5957 14.7236 20.5957C14.3441 20.5957 13.9717 20.5456 13.6064 20.4453C13.2412 20.3451 12.7972 20.1947 12.2744 19.9941C11.7445 19.7936 11.3005 19.6432 10.9424 19.543C10.5843 19.4427 10.2191 19.3926 9.84668 19.3926C8.82259 19.3926 7.97038 19.8008 7.29004 20.6172V18.2754ZM24.1768 18.1895L24.3486 15.0957L21.749 16.793L20.8252 15.2246L23.5967 13.8281L20.8252 12.4102L21.749 10.8418L24.3486 12.5391L24.1768 9.44531H26.0029L25.8311 12.5391L28.4307 10.8418L29.333 12.4102L26.583 13.8281L29.333 15.2246L28.4307 16.793L25.8311 15.0957L26.0029 18.1895H24.1768Z" fill="#004E96"/>
</svg>
