<svg viewBox="0 0 44 44" fill="none" xmlns="http://www.w3.org/2000/svg">
<g clip-path="url(#clip0_52_1392)">
<mask id="mask0_52_1392" style="mask-type:luminance" maskUnits="userSpaceOnUse" x="0" y="0" width="44" height="44">
<path d="M0 0H44V44H0V0Z" fill="white"/>
</mask>
<g mask="url(#mask0_52_1392)">
<path d="M17.2354 21.2609H26.0319L37.0285 0H28.2319L17.2354 21.2609Z" fill="#006CA2"/>
<path d="M22.732 10.6287L18.3354 19.1365L19.4354 21.2608H26.032L27.132 19.1365L22.732 10.6287Z" fill="#2F2F2F"/>
<path d="M26.7334 26.3932H17.9368V21.261H26.7334V26.3932ZM26.7334 19.061H17.9368C17.3533 19.061 16.7938 19.2928 16.3812 19.7054C15.9686 20.118 15.7368 20.6776 15.7368 21.261V26.3932C15.7368 27.6101 16.7199 28.5932 17.9368 28.5932H26.7334C27.9503 28.5932 28.9334 27.6101 28.9334 26.3932V21.261C28.9334 20.0442 27.9503 19.061 26.7334 19.061Z" fill="#F79329"/>
<path d="M33.3335 32.9897C33.3335 39.0638 28.411 43.9863 22.3369 43.9863C16.2628 43.9863 11.3403 39.0638 11.3403 32.9897C11.3403 26.9157 16.2628 21.9932 22.3369 21.9932C28.411 21.9932 33.3335 26.9191 33.3335 32.9897Z" fill="#F79329"/>
<path d="M14.9634 30.3154C14.8191 30.3154 14.6747 30.2879 14.5372 30.226C14.0078 29.9992 13.7534 29.3838 13.9597 28.8476C13.9631 28.8373 13.9666 28.8304 13.97 28.8235C13.9734 28.8063 13.9734 28.8098 13.9837 28.796C14.465 27.6527 15.2108 26.6399 16.1598 25.8409C17.1088 25.0419 18.2338 24.4796 19.4425 24.2001C19.5628 24.1726 19.69 24.231 19.745 24.3445C19.8 24.4579 19.7691 24.5954 19.6694 24.6745C18.0641 25.9498 16.7819 27.672 15.9603 29.6485C15.9603 29.652 15.9569 29.6554 15.9569 29.6554C15.9569 29.6588 15.9569 29.6588 15.9534 29.6623C15.84 29.927 15.6303 30.1332 15.3622 30.2363C15.235 30.2913 15.0975 30.3154 14.9634 30.3154Z" fill="white"/>
<path d="M26.7643 21.2609H17.9678L6.97119 0H15.7678L26.7643 21.2609Z" fill="#006CA2"/>
<path d="M22.2403 38.4485H22.2953C22.9175 38.4382 24.0966 38.3007 24.9972 37.4929C25.7466 36.8191 26.0938 35.8979 25.9528 34.9629C25.8188 34.0932 25.2722 33.3541 24.4369 32.8969C25.2378 32.2954 25.7191 31.5426 25.8016 30.7588C25.8841 29.9991 25.585 29.2429 24.9422 28.5691C24.296 27.8919 23.4228 27.5344 22.4225 27.5344C20.8791 27.5344 19.4594 28.3491 19.0297 28.9404C18.9919 28.9885 18.9919 29.0572 19.0263 29.1122L19.9853 30.4975C20.0094 30.5319 20.0438 30.556 20.085 30.5594C20.1228 30.5663 20.1675 30.556 20.1985 30.5285C20.2088 30.5216 21.2503 29.6657 22.1406 29.6657C22.5463 29.6657 22.8453 29.8444 23.0585 30.2088C23.2338 30.5147 23.2681 30.7932 23.1616 31.0613C22.8694 31.7832 21.6319 32.151 21.6216 32.1544C21.5597 32.1716 21.515 32.23 21.515 32.2954V33.5157C21.515 33.5844 21.5597 33.6429 21.6285 33.6566C21.6422 33.6601 22.8178 33.9522 23.086 34.626C23.1925 34.8907 23.1375 35.1897 22.9278 35.5163C22.7044 35.86 22.3675 36.0354 21.9241 36.0354C21.0647 36.0354 20.0128 35.3822 19.5522 34.9732C19.5368 34.9595 19.5189 34.9492 19.4994 34.9427C19.4799 34.9362 19.4593 34.9337 19.4388 34.9354C19.3941 34.9388 19.3597 34.9629 19.3356 34.9972L18.3766 36.3825C18.3388 36.4375 18.3422 36.5097 18.3869 36.5613C18.4453 36.6404 20.0128 38.4485 22.2403 38.4485Z" fill="#AE3D09"/>
</g>
</g>
<defs>
<clipPath id="clip0_52_1392">
<rect width="44" height="44" fill="white"/>
</clipPath>
</defs>
</svg>
