<svg width="16" height="16" viewBox="0 0 16 16" fill="none" xmlns="http://www.w3.org/2000/svg">
<path d="M15.1564 7.44394L1.40636 0.568937C1.29859 0.515041 1.17754 0.493446 1.05778 0.506753C0.938028 0.520059 0.82467 0.567699 0.731361 0.643937C0.642251 0.71862 0.57574 0.816679 0.539304 0.927089C0.502869 1.0375 0.497953 1.15589 0.525111 1.26894L2.18136 7.37519H9.25011V8.62519H2.18136L0.500111 14.7127C0.474627 14.8071 0.471653 14.9062 0.491426 15.0019C0.511199 15.0977 0.553169 15.1875 0.61396 15.2641C0.674751 15.3407 0.752668 15.402 0.841444 15.443C0.930221 15.484 1.02738 15.5036 1.12511 15.5002C1.22295 15.4996 1.31928 15.4761 1.40636 15.4314L15.1564 8.55644C15.2587 8.50399 15.3447 8.4243 15.4046 8.32616C15.4646 8.22801 15.4964 8.11522 15.4964 8.00019C15.4964 7.88516 15.4646 7.77236 15.4046 7.67422C15.3447 7.57607 15.2587 7.49639 15.1564 7.44394Z" fill="#004E96"/>
</svg>
