<svg width="16" height="16" viewBox="0 0 16 16" fill="none" xmlns="http://www.w3.org/2000/svg">
<path d="M14.7379 1.30793C13.8844 0.454354 12.679 0.320068 11.2558 0.320068H4.72687C3.3208 0.320068 2.11544 0.453997 1.26151 1.30793C0.407941 2.1615 0.282227 3.35864 0.282227 4.7565V11.2186C0.282227 12.6501 0.407584 13.8386 1.26151 14.6922C2.11508 15.5458 3.3208 15.6801 4.75187 15.6801H11.2558C12.679 15.6801 13.8844 15.5461 14.7379 14.6922C15.5919 13.8386 15.7172 12.6501 15.7172 11.2186V4.7815C15.7172 3.35007 15.5919 2.15293 14.7379 1.30793ZM14.3697 4.54721V11.4447C14.3697 12.3151 14.2608 13.2022 13.759 13.7129C13.2483 14.2151 12.344 14.3322 11.4819 14.3322H4.51758C3.65544 14.3322 2.75151 14.2151 2.24937 13.7129C1.73866 13.2022 1.62973 12.3151 1.62973 11.4444V4.57257C1.62973 3.694 1.73866 2.78971 2.2408 2.28757C2.75151 1.77685 3.66366 1.66828 4.54258 1.66828H11.4819C12.344 1.66828 13.2479 1.78543 13.7587 2.28757C14.2608 2.79828 14.3697 3.68507 14.3697 4.54721ZM7.99973 12.4658C8.33473 12.4658 8.60258 12.2061 8.60258 11.8715V8.59864H11.8754C12.2101 8.59864 12.4779 8.314 12.4779 8.00435C12.4779 7.67793 12.2101 7.4015 11.8754 7.4015H8.60258V4.12043C8.60258 3.78543 8.33473 3.52614 7.99973 3.52614C7.92137 3.52498 7.84357 3.53957 7.77094 3.56902C7.69832 3.59848 7.63235 3.64221 7.57693 3.69763C7.52151 3.75304 7.47778 3.81902 7.44833 3.89164C7.41887 3.96427 7.40429 4.04206 7.40544 4.12043V7.4015H4.13258C3.79758 7.4015 3.52973 7.67793 3.52973 8.00435C3.52973 8.314 3.79758 8.59864 4.13258 8.59864H7.40544V11.8715C7.40544 12.2061 7.66508 12.4658 7.99973 12.4658Z" fill="#004E96"/>
</svg>
