<svg  viewBox="0 0 44 44" fill="none" xmlns="http://www.w3.org/2000/svg">
<path d="M32.4911 7.49725C33.3299 7.09162 33.9108 6.23568 33.9108 5.24225C33.9108 4.57854 33.6472 3.94202 33.1779 3.47271C32.7085 3.0034 32.072 2.73975 31.4083 2.73975C30.7446 2.73975 30.1081 3.0034 29.6388 3.47271C29.1695 3.94202 28.9058 4.57854 28.9058 5.24225C28.9058 6.24943 29.5005 7.11225 30.3564 7.511C29.3664 12.8735 27.8471 16.8644 22.1924 17.7169C22.1924 17.7169 23.7152 25.331 30.8377 25.331C37.9602 25.331 38.6821 17.7926 38.6821 17.7926C32.9036 18.0882 32.4155 10.8247 32.4911 7.49725Z" fill="#F19534"/>
<path d="M11.9419 7.49725C11.1031 7.09162 10.5222 6.23568 10.5222 5.24225C10.5222 4.57854 10.7859 3.94202 11.2552 3.47271C11.7245 3.0034 12.361 2.73975 13.0247 2.73975C13.6884 2.73975 14.3249 3.0034 14.7942 3.47271C15.2636 3.94202 15.5272 4.57854 15.5272 5.24225C15.5272 6.24943 14.9325 7.11225 14.0766 7.511C15.0666 12.8735 16.586 16.8644 22.2406 17.7169C22.2406 17.7169 20.7178 25.331 13.5953 25.331C6.47283 25.331 5.75439 17.796 5.75439 17.796C11.5294 18.0882 12.0175 10.8247 11.9419 7.49725Z" fill="#F19534"/>
<path d="M30.7417 25.3309C30.7726 25.3309 30.8036 25.3344 30.8345 25.3344C32.7973 25.3344 34.272 24.7603 35.3789 23.9319L30.7417 25.3309Z" fill="#FFCA28"/>
<path d="M40.9889 5.79564C39.8442 5.64095 38.7511 6.73064 38.5517 8.22251C38.428 9.15407 38.6789 10.0238 39.1636 10.5841L38.3386 14.0044C38.3386 14.0044 37.077 22.0859 30.7039 23.6809C25.6095 24.9563 23.7636 15.6303 23.3167 12.7497C24.2861 12.2684 24.9564 11.2716 24.9564 10.1131C24.9564 8.4872 23.6398 7.17064 22.0139 7.17064C20.388 7.17064 19.0714 8.4872 19.0714 10.1131C19.0714 11.2784 19.752 12.2856 20.7386 12.76C20.3845 15.6028 18.8239 24.6194 13.3239 23.6775C7.7414 22.7184 5.30422 13.3169 4.74047 10.7594C5.41078 10.2094 5.78547 9.24001 5.64797 8.19845C5.44859 6.70314 4.26609 5.63064 3.00797 5.79907C1.74984 5.96751 0.893905 7.31501 1.09328 8.80689C1.23765 9.89314 1.90453 10.7559 2.73984 11.0825L7.11234 38.2491C7.11234 38.2491 10.928 41.2638 22.0139 41.2638C33.0998 41.2638 36.9155 38.2491 36.9155 38.2491L41.2983 11.0103C42.0064 10.6391 42.5633 9.80376 42.7008 8.77939C42.9036 7.28407 42.137 5.95032 40.9889 5.79564Z" fill="#FFCA28"/>
<path d="M22.1513 34.3442C24.0005 34.3442 25.4995 32.5574 25.4995 30.3532C25.4995 28.1491 24.0005 26.3623 22.1513 26.3623C20.3022 26.3623 18.8032 28.1491 18.8032 30.3532C18.8032 32.5574 20.3022 34.3442 22.1513 34.3442Z" fill="#26A69A"/>
<path d="M22.1513 27.3488C22.2819 27.4932 22.3988 27.7579 22.1513 28.2735C21.9038 28.7892 20.5701 29.487 20.326 29.6279C20.0819 29.7723 19.9204 29.707 19.8447 29.6485C19.4838 29.3598 19.6213 28.7067 19.8551 28.3079C20.3569 27.4451 21.4191 26.5548 22.1513 27.3488Z" fill="#69F0AE"/>
<path d="M21.904 31.8417C21.5259 32.0238 20.2849 32.5773 20.694 33.2338C20.9346 33.6223 21.4331 33.7873 21.8902 33.8079C22.3474 33.8285 22.7977 33.6842 23.2034 33.4745C25.1284 32.4776 25.2831 29.8582 24.9084 29.6588C24.5234 29.4526 24.2621 29.9854 24.0627 30.2123C23.4565 30.8912 22.7231 31.4448 21.904 31.8417Z" fill="#00796B"/>
<path d="M40.5935 27.0876C41.1298 24.121 39.136 23.3785 39.136 23.3785C39.136 23.3785 37.8504 23.1448 37.2454 26.4826C36.6404 29.817 37.926 30.0507 37.926 30.0507C37.926 30.0507 40.0538 30.0542 40.5935 27.0876Z" fill="#26A69A"/>
<path d="M39.7065 24.3926C40.174 25.0182 39.6205 25.9429 38.7233 26.5582C38.4586 26.7404 38.108 26.6716 38.0564 26.5204C37.9121 26.0872 37.9739 25.5957 38.1664 25.1797C38.7371 23.9319 39.4693 24.0763 39.7065 24.3926Z" fill="#69F0AE"/>
<path d="M3.35523 27.1769C2.81554 24.2138 4.81273 23.4679 4.81273 23.4679C4.81273 23.4679 6.09836 23.2341 6.70336 26.5719C7.30836 29.9063 6.02273 30.1401 6.02273 30.1401C6.02273 30.1401 3.89148 30.1435 3.35523 27.1769Z" fill="#26A69A"/>
<path d="M5.42429 24.475C5.88492 24.8187 5.69585 25.269 5.34867 25.5818C4.95335 25.9428 4.65085 26.3381 4.31398 26.7471C4.26242 26.809 4.20398 26.8778 4.12148 26.895C3.96335 26.9293 3.83617 26.7678 3.7846 26.6131C3.63679 26.18 3.66429 25.6712 3.88429 25.2725C4.50992 24.1346 5.24554 24.3409 5.42429 24.475Z" fill="#69F0AE"/>
<path d="M34.3716 29.9613C34.1344 31.3123 33.0516 32.2507 31.9481 32.0582C30.8447 31.8657 30.6934 30.7141 30.9306 29.3632C31.1678 28.0123 31.7006 26.9776 32.8006 27.1701C33.9041 27.3626 34.6087 28.6138 34.3716 29.9613ZM10.4603 29.9613C10.6975 31.3123 11.7803 32.2507 12.8837 32.0582C13.9872 31.8657 14.1384 30.7141 13.9012 29.3632C13.6641 28.0123 13.1312 26.9776 12.0312 27.1701C10.9312 27.3626 10.2266 28.6138 10.4603 29.9613Z" fill="#F44336"/>
<path d="M12.0588 29.0607C11.8079 29.3425 11.196 29.9097 10.9794 29.4766C10.6838 28.8854 11.0929 27.9916 11.5604 27.696C12.0279 27.4004 12.4094 27.6341 12.4748 27.8988C12.5538 28.2357 12.2823 28.8063 12.0588 29.0607ZM31.6182 29.9235C31.2779 29.8719 31.2401 28.6997 32.1544 27.7785C32.591 27.3385 33.2166 27.861 33.0585 28.5657C32.9073 29.236 32.2404 30.0197 31.6182 29.9235Z" fill="#FFA8A4"/>
<path d="M37.5202 33.7598C35.4612 34.791 30.738 37.5376 22.0171 37.5376C13.2962 37.5376 8.57303 34.791 6.51397 33.7598C6.51397 33.7598 5.7749 34.1551 5.7749 34.5676V37.7335C5.7749 38.1563 5.99834 38.5448 6.36272 38.7613C7.97147 39.7101 12.8733 41.9513 22.0205 41.9513C31.1677 41.9513 36.0696 39.7101 37.6783 38.7613C37.8572 38.6559 38.0055 38.5056 38.1086 38.3254C38.2116 38.1451 38.266 37.9411 38.2662 37.7335V34.5676C38.2593 34.1551 37.5202 33.7598 37.5202 33.7598Z" fill="#FFCA28"/>
<path d="M13.6127 38.1013C14.5752 38.2904 14.8674 38.3729 14.8021 38.9091C14.668 39.9645 12.4783 39.7135 11.1824 39.3732C8.50455 38.6685 7.96143 37.926 7.96143 37.2626C7.96143 36.6541 8.42893 36.582 9.1508 36.8363C10.0136 37.1423 11.3474 37.6579 13.6127 38.1013Z" fill="#FFF59D"/>
<path d="M37.5204 34.4541C37.5204 34.4541 31.8245 37.6785 22.0173 37.6785C12.2101 37.6785 6.51416 34.4541 6.51416 34.4541" stroke="#F19534" stroke-width="4" stroke-miterlimit="10" stroke-linecap="round"/>
<path d="M9.27114 17.0396C11.0999 15.7333 12.083 13.3924 12.1689 9.66616C12.1758 9.32929 12.2721 9.2296 12.4543 9.20897C12.7464 9.17804 12.7946 9.44272 12.7911 9.63179C12.7086 13.6537 12.1964 16.1665 10.1683 17.5827C10.0686 17.6515 9.35707 18.0846 9.05457 17.7855C8.69364 17.4349 9.15426 17.1221 9.27114 17.0396ZM10.9452 5.34179C10.8868 4.7196 11.0311 3.59897 12.6639 3.09022C13.1418 2.94241 13.4374 3.17616 13.4924 3.35835C13.6299 3.8121 13.2311 3.99085 13.0489 4.04929C11.7943 4.45491 11.7324 5.08054 11.4746 5.47929C11.2168 5.87804 10.9658 5.53085 10.9452 5.34179ZM26.8883 16.2146C28.5418 14.7468 29.6383 13.1071 30.3602 9.37397C30.4255 9.04397 30.5218 8.9546 30.7005 8.96147C30.9927 8.96835 31.0065 9.23991 30.9755 9.42554C30.3636 13.4062 29.7827 14.5405 27.7443 16.799C27.5139 17.0533 26.9536 17.2837 26.6374 17.019C26.3521 16.7818 26.6821 16.4002 26.8883 16.2146ZM29.3221 5.37272C29.2636 4.75054 29.408 3.62991 31.0408 3.12116C31.5186 2.97335 31.8143 3.2071 31.8693 3.38929C32.0068 3.84304 31.608 4.02179 31.4258 4.08022C30.1711 4.48585 30.1093 5.11147 29.8514 5.51022C29.5971 5.90897 29.3427 5.56179 29.3221 5.37272Z" fill="#FFCA28"/>
<path d="M10.8592 24.6194C6.86485 22.8078 5.68923 18.0813 5.0636 16.0291C4.9811 15.7575 5.02235 15.4997 5.29392 15.4172C5.56548 15.3347 5.72704 15.51 5.81298 15.7816C6.26673 17.27 8.03017 22.2406 11.6705 23.6534C11.9352 23.7566 12.3477 24.0075 12.1242 24.4372C11.9764 24.7156 11.502 24.9116 10.8592 24.6194ZM4.35892 8.46657C4.16642 8.06782 4.08735 7.68969 3.03892 7.25313C2.77423 7.14313 2.59892 6.89907 2.6711 6.62407C2.74329 6.34907 3.01829 6.14282 3.41704 6.21157C4.71298 6.435 4.99485 7.75157 5.04985 8.20875C5.10142 8.64875 4.55485 8.86532 4.35892 8.46657ZM33.2992 24.6194C37.2936 22.8078 38.4692 18.0813 39.0949 16.0291C39.1774 15.7575 39.1361 15.4997 38.8645 15.4172C38.593 15.3347 38.4314 15.51 38.3455 15.7816C37.8917 17.27 36.1283 22.2406 32.488 23.6534C32.2233 23.7566 31.8108 24.0075 32.0342 24.4372C32.182 24.7156 32.6564 24.9116 33.2992 24.6194ZM39.7995 8.46657C39.992 8.06782 40.0711 7.68969 41.1195 7.25313C41.3842 7.14313 41.5595 6.89907 41.4874 6.62407C41.4152 6.34907 41.1402 6.14282 40.7414 6.21157C39.4455 6.435 39.1636 7.75157 39.1086 8.20875C39.057 8.64875 39.607 8.86532 39.7995 8.46657ZM20.412 10.1578C20.6217 9.72813 20.9895 9.14032 22.1892 8.89282C22.6499 8.79657 22.7839 8.59719 22.7427 8.29469C22.6602 7.66563 21.8764 7.71032 21.4536 7.81C20.0442 8.14 19.7314 9.39125 19.673 9.88625C19.6145 10.3572 20.2058 10.5875 20.412 10.1578Z" fill="#FFF59D"/>
</svg>
