<svg width="20" height="20" viewBox="0 0 20 20" fill="none" xmlns="http://www.w3.org/2000/svg">
<path d="M9.63167 11.3717L9.56167 11.4308L3.78917 17.0975C4.21569 17.3606 4.70719 17.4994 5.20834 17.4983H9.30334L9.6 16.3125C9.735 15.7725 10.0142 15.2792 10.4083 14.8858L12.1667 13.1275L10.4375 11.4308L10.3592 11.3658C10.2525 11.2908 10.1249 11.2509 9.99448 11.252C9.86402 11.253 9.73715 11.2949 9.63167 11.3717ZM13.7525 6.87667C13.7525 6.71046 13.6865 6.55107 13.569 6.43355C13.4514 6.31602 13.292 6.25 13.1258 6.25C12.9596 6.25 12.8002 6.31602 12.6827 6.43355C12.5652 6.55107 12.4992 6.71046 12.4992 6.87667C12.4992 7.04287 12.5652 7.20226 12.6827 7.31979C12.8002 7.43731 12.9596 7.50333 13.1258 7.50333C13.292 7.50333 13.4514 7.43731 13.569 7.31979C13.6865 7.20226 13.7525 7.04287 13.7525 6.87667ZM13.05 12.2442L11.3125 10.5392L11.2058 10.4417C10.869 10.1586 10.4434 10.003 10.0034 10.0021C9.56344 10.0012 9.13716 10.155 8.79917 10.4367L8.68584 10.5392L2.90417 16.2142C2.63928 15.787 2.49927 15.2943 2.5 14.7917V5.20833C2.5 4.49004 2.78534 3.80116 3.29326 3.29325C3.80117 2.78534 4.49004 2.5 5.20834 2.5H14.7908C15.5091 2.5 16.198 2.78534 16.7059 3.29325C17.2138 3.80116 17.4992 4.49004 17.4992 5.20833V9.17667C17.1011 9.14172 16.7001 9.1945 16.3246 9.33128C15.9491 9.46806 15.6082 9.68552 15.3258 9.96833L13.05 12.2442ZM11.25 6.87667C11.2447 7.12639 11.2894 7.37464 11.3813 7.60689C11.4732 7.83913 11.6106 8.05069 11.7853 8.22916C11.9601 8.40763 12.1687 8.54942 12.399 8.64622C12.6292 8.74302 12.8765 8.79288 13.1263 8.79288C13.376 8.79288 13.6233 8.74302 13.8535 8.64622C14.0838 8.54942 14.2924 8.40763 14.4672 8.22916C14.6419 8.05069 14.7793 7.83913 14.8712 7.60689C14.9631 7.37464 15.0078 7.12639 15.0025 6.87667C15.0025 6.37894 14.8048 5.90161 14.4528 5.54966C14.1009 5.19772 13.6236 5 13.1258 5C12.6281 5 12.1508 5.19772 11.7988 5.54966C11.4469 5.90161 11.2492 6.37894 11.2492 6.87667M15.9142 10.5575L10.9967 15.475C10.7101 15.7622 10.5065 16.1216 10.4075 16.515L10.0267 18.04C9.86 18.7042 10.4617 19.305 11.125 19.1392L12.65 18.7575C13.0434 18.6587 13.4027 18.4554 13.69 18.1692L18.6083 13.25C18.9564 12.8909 19.1492 12.4093 19.1452 11.9092C19.1412 11.4091 18.9408 10.9306 18.5871 10.5771C18.2334 10.2235 17.7549 10.0232 17.2548 10.0194C16.7547 10.0156 16.2732 10.2094 15.9142 10.5575Z" fill="#004E96"/>
</svg>
