<svg width="15" height="15" viewBox="0 0 15 15" fill="none" xmlns="http://www.w3.org/2000/svg">
<path d="M8.91667 4.66659V3.24992C8.91667 2.8742 8.76741 2.51386 8.50174 2.24818C8.23606 1.98251 7.87572 1.83325 7.5 1.83325H2.54167C2.16594 1.83325 1.80561 1.98251 1.53993 2.24818C1.27426 2.51386 1.125 2.8742 1.125 3.24992V11.7499C1.125 12.1256 1.27426 12.486 1.53993 12.7517C1.80561 13.0173 2.16594 13.1666 2.54167 13.1666H7.5C7.87572 13.1666 8.23606 13.0173 8.50174 12.7517C8.76741 12.486 8.91667 12.1256 8.91667 11.7499V10.3333" stroke="#C4C4C4" stroke-width="2" stroke-linecap="round" stroke-linejoin="round"/>
<path d="M5.375 7.5H13.875M13.875 7.5L11.75 5.375M13.875 7.5L11.75 9.625" stroke="#C4C4C4" stroke-width="2" stroke-linecap="round" stroke-linejoin="round"/>
</svg>
