<svg width="15" height="15" viewBox="0 0 15 15" fill="none" xmlns="http://www.w3.org/2000/svg">
<path d="M7.49984 15C11.5957 15 15 11.5957 15 7.5C15 3.39706 11.5881 0 7.49231 0C3.3896 0 0 3.39706 0 7.5C0 11.5957 3.39681 15 7.49984 15ZM10.3166 5.48523L9.47073 4.63973L9.99279 4.12522C10.2281 3.89714 10.4929 3.87486 10.7062 4.0882L10.8678 4.25008C11.0811 4.46342 11.0592 4.72068 10.8311 4.96319L10.3166 5.48523ZM5.20581 10.5736L4.2279 10.9413C4.06632 11 3.89691 10.8528 3.97063 10.6765L4.37504 9.7281L9.04436 5.06609L9.88988 5.90438L5.20581 10.5736Z" fill="#C4C4C4"/>
</svg>
