<svg width="15" height="15" viewBox="0 0 15 15" fill="none" xmlns="http://www.w3.org/2000/svg">
<path d="M11.716 0.232666C11.4046 0.23342 11.0964 0.295837 10.8092 0.416317C10.522 0.536796 10.2615 0.712952 10.0427 0.934624L0.937113 10.0399L0.901412 10.2202L0.271455 13.3873L0.0917969 14.2327L0.937689 14.053L4.10474 13.423L4.2844 13.3867L13.39 4.28145C13.6122 4.06304 13.7887 3.80256 13.9092 3.5152C14.0297 3.22784 14.0918 2.91935 14.0918 2.60775C14.0918 2.29614 14.0297 1.98766 13.9092 1.7003C13.7887 1.41294 13.6122 1.15245 13.39 0.934048C13.1711 0.712412 12.9105 0.536322 12.6232 0.41594C12.3358 0.295558 12.0275 0.233269 11.716 0.232666ZM11.716 1.33023C12.0063 1.33023 12.2988 1.46268 12.5798 1.74427C13.1401 2.30399 13.1401 2.91151 12.5798 3.47181L12.1663 3.86741L10.4561 2.15772L10.8523 1.74427C11.1339 1.46268 11.4258 1.33023 11.716 1.33023ZM9.64709 2.96794L11.3562 4.67763L4.39266 11.6408C4.01673 10.9052 3.41823 10.3071 2.68245 9.93166L9.64709 2.96794ZM1.94539 10.868C2.28619 11.0051 2.59576 11.2097 2.85551 11.4694C3.11526 11.7292 3.31983 12.0388 3.45694 12.3796L1.56707 12.7573L1.94539 10.868Z" fill="#004E96"/>
</svg>
