<svg width="16" height="16" viewBox="0 0 16 16" fill="none" xmlns="http://www.w3.org/2000/svg">
<path fill-rule="evenodd" clip-rule="evenodd" d="M8.00001 2C6.95058 1.99981 5.91945 2.27487 5.00955 2.79772C4.09964 3.32058 3.34278 4.07294 2.81452 4.97972C2.28626 5.88649 2.00506 6.91596 1.99901 7.96538C1.99295 9.01479 2.26225 10.0474 2.78001 10.9602C3.12997 10.5054 3.57983 10.1372 4.09482 9.88398C4.60981 9.63078 5.17614 9.4994 5.75001 9.5H10.25C10.8239 9.4994 11.3902 9.63078 11.9052 9.88398C12.4202 10.1372 12.87 10.5054 13.22 10.9602C13.7378 10.0474 14.0071 9.01479 14.001 7.96538C13.995 6.91596 13.7138 5.88649 13.1855 4.97972C12.6572 4.07294 11.9004 3.32058 10.9905 2.79772C10.0806 2.27487 9.04944 1.99981 8.00001 2ZM13.9573 12.557C14.96 11.2497 15.5024 9.64758 15.5 8C15.5 3.85775 12.1423 0.5 8.00001 0.5C3.85776 0.5 0.500008 3.85775 0.500008 8C0.497532 9.64759 1.03994 11.2498 2.04276 12.557L2.03901 12.5705L2.30526 12.8802C3.00867 13.7026 3.88205 14.3627 4.86518 14.815C5.84832 15.2673 6.91783 15.501 8.00001 15.5C9.52051 15.5028 11.0056 15.0409 12.2563 14.1763C12.7895 13.8079 13.2729 13.3723 13.6948 12.8802L13.961 12.5705L13.9573 12.557ZM8.00001 3.5C7.40327 3.5 6.83097 3.73705 6.40902 4.15901C5.98706 4.58097 5.75001 5.15326 5.75001 5.75C5.75001 6.34674 5.98706 6.91903 6.40902 7.34099C6.83097 7.76295 7.40327 8 8.00001 8C8.59675 8 9.16904 7.76295 9.591 7.34099C10.013 6.91903 10.25 6.34674 10.25 5.75C10.25 5.15326 10.013 4.58097 9.591 4.15901C9.16904 3.73705 8.59675 3.5 8.00001 3.5Z" fill="#C4C4C4"/>
</svg>
