<svg width="20" height="20" viewBox="0 0 20 20" fill="none" xmlns="http://www.w3.org/2000/svg">
<path fill-rule="evenodd" clip-rule="evenodd" d="M12.5839 13.7332C11.1237 14.8998 9.27224 15.4631 7.40974 15.3073C5.54724 15.1515 3.81509 14.2885 2.56904 12.8955C1.32299 11.5024 0.657634 9.68515 0.709619 7.81687C0.761604 5.94859 1.52699 4.17113 2.84857 2.84955C4.17016 1.52796 5.94762 0.762581 7.8159 0.710596C9.68418 0.658611 11.5014 1.32397 12.8945 2.57002C14.2875 3.81607 15.1505 5.54822 15.3063 7.41072C15.4621 9.27322 14.8989 11.1247 13.7322 12.5848L19.3179 18.1694C19.3977 18.2438 19.4617 18.3335 19.5061 18.4332C19.5505 18.5328 19.5744 18.6404 19.5763 18.7495C19.5783 18.8586 19.5582 18.967 19.5173 19.0682C19.4765 19.1693 19.4156 19.2612 19.3385 19.3384C19.2613 19.4155 19.1694 19.4764 19.0683 19.5172C18.9671 19.5581 18.8587 19.5782 18.7496 19.5762C18.6405 19.5743 18.5329 19.5504 18.4333 19.506C18.3336 19.4616 18.2439 19.3976 18.1695 19.3178L12.5839 13.7332ZM3.99736 12.041C3.20224 11.2458 2.6607 10.2327 2.44117 9.12984C2.22164 8.02695 2.33399 6.88373 2.764 5.84467C3.19402 4.8056 3.92241 3.91733 4.85711 3.29212C5.79182 2.6669 6.89089 2.3328 8.01542 2.33205C9.13995 2.33129 10.2395 2.66391 11.175 3.28787C12.1106 3.91182 12.8401 4.79911 13.2716 5.83759C13.703 6.87608 13.8168 8.01915 13.5988 9.12234C13.3808 10.2255 12.8406 11.2393 12.0465 12.0356L12.0411 12.041L12.0357 12.0453C10.9687 13.1098 9.52283 13.7073 8.01563 13.7065C6.50844 13.7057 5.0632 13.1067 3.99736 12.041Z" fill="#D6D6D6"/>
</svg>
