<svg width="16" height="16" viewBox="0 0 16 16" fill="none" xmlns="http://www.w3.org/2000/svg">
<path d="M6.6167 12.7435C7.91449 12.7435 9.11166 12.331 10.1076 11.6469L13.6791 15.2183C13.8702 15.4095 14.1217 15.5 14.3832 15.5C14.9466 15.5 15.3591 15.0674 15.3591 14.5141C15.3591 14.2525 15.2686 13.991 15.0775 13.8099L11.5363 10.2585C12.2908 9.2324 12.7334 7.97485 12.7334 6.6167C12.7334 3.24647 9.98693 0.5 6.6167 0.5C3.25655 0.5 0.5 3.23643 0.5 6.6167C0.5 9.98693 3.24647 12.7435 6.6167 12.7435ZM6.6167 11.2445C4.09155 11.2445 1.999 9.15191 1.999 6.6167C1.999 4.09156 4.09155 1.999 6.6167 1.999C9.1519 1.999 11.2344 4.09156 11.2344 6.6167C11.2344 9.15191 9.1519 11.2445 6.6167 11.2445Z" fill="#8E8E8E"/>
</svg>
