<svg  viewBox="0 0 14 15" fill="none" xmlns="http://www.w3.org/2000/svg">
<path d="M8.59357 14.2215C9.08321 14.2215 9.42221 13.826 9.65449 13.2233L13.7979 2.38139C13.9046 2.10517 13.9674 1.86033 13.9674 1.64688C13.9674 1.20115 13.6849 0.91864 13.2329 0.91864C13.0257 0.91864 12.7746 0.97514 12.4984 1.08187L1.61251 5.2504C1.07261 5.45755 0.664551 5.79655 0.664551 6.28626C0.664551 6.88262 1.11028 7.10862 1.72552 7.29698L4.97749 8.2889C5.41692 8.42705 5.67428 8.42076 5.98192 8.13198L12.9755 1.65315C13.0634 1.57155 13.1701 1.5841 13.2392 1.64688C13.3082 1.70965 13.3082 1.82266 13.2329 1.90428L6.76664 8.9104C6.50299 9.20548 6.47785 9.48169 6.60971 9.92112L7.57649 13.1103C7.76485 13.7507 7.99085 14.2215 8.59357 14.2215Z" fill="#004E96"/>
</svg>
