<svg width="44" height="44" viewBox="0 0 44 44" fill="none" xmlns="http://www.w3.org/2000/svg">
<mask id="mask0_52_1428" style="mask-type:luminance" maskUnits="userSpaceOnUse" x="0" y="0" width="44" height="44">
<path d="M0 0H43.0222V43.0222H0V0Z" fill="white"/>
</mask>
<g mask="url(#mask0_52_1428)">
<path d="M16.5869 20.7717H25.1813L35.9267 0H27.3324L16.5869 20.7717Z" fill="#006CA2"/>
<path d="M21.9576 10.3857L17.6621 18.6944L18.7377 20.7716H25.1809L26.2565 18.6944L21.9576 10.3857Z" fill="#2F2F2F"/>
<path d="M25.87 25.7866H17.2723V20.7718H25.8666V25.7866H25.87ZM25.87 18.624H17.2723C16.0858 18.624 15.1245 19.5853 15.1245 20.7718V25.7866C15.1245 26.973 16.0858 27.9343 17.2723 27.9343H25.8666C27.0531 27.9343 28.0144 26.973 28.0144 25.7866V20.7718C28.0151 20.4898 27.9601 20.2105 27.8526 19.9498C27.7452 19.6891 27.5873 19.4522 27.3881 19.2527C27.1889 19.0532 26.9522 18.8949 26.6917 18.787C26.4312 18.6792 26.1519 18.6238 25.87 18.624Z" fill="#CECED2"/>
<path d="M32.3166 32.233C32.3166 38.1687 27.5069 42.9785 21.5712 42.9785C15.6388 42.9785 10.8257 38.1687 10.8257 32.233C10.8257 26.2973 15.6354 21.4875 21.5712 21.4875C27.5069 21.4875 32.3166 26.3007 32.3166 32.233Z" fill="#CECED2"/>
<path d="M14.3683 29.6181C14.2271 29.6181 14.0859 29.5912 13.9515 29.5307C13.4339 29.3089 13.1851 28.7073 13.3868 28.1829C13.3902 28.1762 13.3935 28.1661 13.3935 28.1594C13.3969 28.1426 13.3969 28.146 13.407 28.1325C13.877 27.0151 14.6057 26.0254 15.533 25.2447C16.4604 24.464 17.5599 23.9147 18.7411 23.6421C18.8587 23.6152 18.9831 23.6723 19.0368 23.7832C19.0906 23.8942 19.0604 24.0252 18.9629 24.1026C17.3933 25.3495 16.1396 27.0301 15.3396 28.9627C15.3396 28.9661 15.3363 28.9694 15.3363 28.9694C15.3363 28.9728 15.3363 28.9728 15.3329 28.9762C15.222 29.235 15.0169 29.4333 14.7548 29.5375C14.6338 29.5946 14.4993 29.6181 14.3683 29.6181Z" fill="white"/>
<path d="M25.9004 20.7717H17.3027L6.56055 0H15.1549L25.9004 20.7717Z" fill="#006CA2"/>
<path d="M24.7573 34.9153H21.1508C21.7189 34.5692 22.7104 33.8801 23.8397 32.7508C24.8985 31.6954 25.2514 29.7695 23.9876 28.5023C23.2549 27.773 22.4213 27.3999 21.5105 27.3999C19.4972 27.3999 17.8166 29.1813 17.746 29.2552C17.7023 29.3023 17.6923 29.3762 17.7292 29.4334L18.6367 30.9156C18.6603 30.9526 18.7006 30.9795 18.7443 30.9828C18.788 30.9896 18.8317 30.9761 18.8653 30.9425C18.8754 30.9324 19.9711 29.9174 20.9324 29.9174C21.3189 29.9174 21.6214 30.0787 21.8567 30.4148C22.0483 30.6871 22.1054 30.9896 22.0314 31.3324C21.6651 32.9726 18.4283 34.828 18.3947 34.8481C18.3725 34.8613 18.3541 34.88 18.3411 34.9024C18.3282 34.9247 18.3212 34.95 18.3208 34.9758V36.9152C18.3208 36.9992 18.388 37.0631 18.4687 37.0631H24.7607C24.8413 37.0631 24.9086 36.9959 24.9086 36.9152V35.0599C24.9067 35.021 24.89 34.9842 24.8619 34.9573C24.8337 34.9304 24.7963 34.9154 24.7573 34.9153Z" fill="#77A2AD"/>
</g>
</svg>
