<svg width="20" height="20" viewBox="0 0 20 20" fill="none" xmlns="http://www.w3.org/2000/svg">
<path d="M11.3185 1.05618C10.381 0.794928 9.64848 1.49368 9.38723 2.14493C9.08723 2.89493 8.82098 3.42118 8.50473 4.04993C8.27653 4.50108 8.05443 4.95529 7.83848 5.41243C7.24473 6.67493 6.65348 7.48243 6.22223 7.96868C6.06565 8.14802 5.89647 8.31594 5.71598 8.47118C5.675 8.50628 5.63289 8.54005 5.58973 8.57243L5.56973 8.58743L3.22973 9.96618C2.72315 10.265 2.33816 10.7329 2.14245 11.2876C1.94675 11.8422 1.95286 12.4481 2.15973 12.9987L2.80973 14.7287C2.94319 15.0841 3.15584 15.4044 3.43155 15.6654C3.70726 15.9264 4.03878 16.1212 4.40098 16.2349L11.096 18.3374C11.4921 18.4619 11.9092 18.5062 12.3226 18.4677C12.7361 18.4292 13.1378 18.3086 13.5041 18.1131C13.8705 17.9176 14.1942 17.651 14.4564 17.329C14.7185 17.0069 14.9139 16.6358 15.031 16.2374L16.736 10.4287C16.8453 10.0559 16.8663 9.66267 16.7972 9.28033C16.7281 8.89798 16.5709 8.53701 16.3379 8.22605C16.105 7.91509 15.8028 7.66271 15.4552 7.48893C15.1077 7.31515 14.7245 7.22476 14.336 7.22493H12.606C12.6885 6.94118 12.7722 6.62618 12.8497 6.29993C13.0135 5.59743 13.1535 4.79618 13.1397 4.12743C13.1285 3.50618 13.0647 2.85368 12.8097 2.29993C12.536 1.70618 12.0572 1.25993 11.3197 1.05493" fill="#ACACAC"/>
</svg>
