<svg width="20" height="20" viewBox="0 0 20 20" fill="none" xmlns="http://www.w3.org/2000/svg">
<path d="M17.9725 3.39193L17.4019 3.99331L16.2302 2.81338L16.8236 2.23483C17.1051 1.95316 17.5387 1.9151 17.7974 2.17393L17.9953 2.37946C18.2844 2.66874 18.2615 3.08743 17.9725 3.39193Z" fill="black" fill-opacity="0.3"/>
<path d="M9.95352 11.4383L8.39395 12.093C8.21892 12.1615 8.02109 11.9636 8.09721 11.7885L8.78189 10.2813L15.6747 3.37671L16.8463 4.54142L9.95352 11.4383Z" fill="black" fill-opacity="0.3"/>
<path d="M8.48571 3.48657H13.6376L12.0947 5.02943H8.48571C7.50016 5.02943 6.8538 5.03063 6.35948 5.07102C5.88316 5.10993 5.68543 5.17741 5.57247 5.23496C5.21766 5.41575 4.92918 5.70422 4.74839 6.05905C4.69083 6.17199 4.62336 6.36974 4.58445 6.84605C4.54406 7.34036 4.54286 7.98673 4.54286 8.97228V11.7151C4.54286 12.7007 4.54406 13.3471 4.58445 13.8414C4.62336 14.3177 4.69083 14.5154 4.74839 14.6284C4.92918 14.9832 5.21766 15.2717 5.57247 15.4524C5.68543 15.51 5.88316 15.5775 6.35948 15.6164C6.8538 15.6568 7.50016 15.658 8.48571 15.658H11.2286C12.2141 15.658 12.8605 15.6568 13.3548 15.6164C13.8311 15.5775 14.0288 15.51 14.1418 15.4524C14.4966 15.2717 14.7851 14.9832 14.9659 14.6284C15.0235 14.5154 15.0909 14.3177 15.1298 13.8414C15.1702 13.3471 15.1714 12.7007 15.1714 11.7151V8.16485L16.7143 6.62199V11.7151C16.7143 13.6353 16.7143 14.5954 16.3406 15.3288C16.0118 15.9739 15.4874 16.4984 14.8423 16.8271C14.1088 17.2008 13.1487 17.2008 11.2286 17.2008H8.48571C6.56553 17.2008 5.60545 17.2008 4.87203 16.8271C4.22691 16.4984 3.7024 15.9739 3.3737 15.3288C3 14.5954 3 13.6353 3 11.7151V8.97228C3 7.05211 3 6.09201 3.3737 5.35861C3.7024 4.71348 4.22691 4.18897 4.87203 3.86026C5.60545 3.48657 6.56553 3.48657 8.48571 3.48657Z" fill="black" fill-opacity="0.3"/>
</svg>
