<svg width="183" height="17" viewBox="0 0 183 17" fill="none" xmlns="http://www.w3.org/2000/svg">
<path d="M11.1162 5.4082C10.8584 4.57031 10.4144 3.91862 9.78418 3.45312C9.15397 2.98047 8.37337 2.74414 7.44238 2.74414C6.60449 2.74414 5.85612 2.95898 5.19727 3.38867C4.54557 3.8112 4.03711 4.43424 3.67188 5.25781C3.30664 6.08138 3.12402 7.0625 3.12402 8.20117C3.12402 9.35417 3.30664 10.346 3.67188 11.1768C4.03711 12.0003 4.54915 12.627 5.20801 13.0566C5.86686 13.4863 6.63314 13.7012 7.50684 13.7012C8.28027 13.7012 8.95703 13.5544 9.53711 13.2607C10.1243 12.96 10.5755 12.5374 10.8906 11.9932C11.2129 11.4417 11.3812 10.8008 11.3955 10.0703H7.78613V7.85742H14.1025V9.72656C14.1025 11.0371 13.8197 12.1829 13.2539 13.1641C12.6953 14.1452 11.9183 14.9007 10.9229 15.4307C9.92741 15.9535 8.78874 16.2148 7.50684 16.2148C6.08171 16.2148 4.82487 15.8926 3.73633 15.248C2.64779 14.5964 1.80273 13.6689 1.20117 12.4658C0.606771 11.2555 0.30957 9.84115 0.30957 8.22266C0.30957 6.59701 0.613932 5.18262 1.22266 3.97949C1.83854 2.76921 2.68359 1.8418 3.75781 1.19727C4.83919 0.552734 6.06022 0.230469 7.4209 0.230469C8.54525 0.230469 9.5765 0.448893 10.5146 0.885742C11.46 1.32259 12.2334 1.9349 12.835 2.72266C13.4365 3.50326 13.8161 4.39844 13.9736 5.4082H11.1162ZM15.1338 16L20.6123 0.445312H24.0498L29.5498 16H26.5635L25.2637 12.1543H19.4092L18.1201 16H15.1338ZM24.5117 9.89844L22.3955 3.625H22.2666L20.1611 9.89844H24.5117ZM41.1514 5.6875C41.0439 5.07878 40.8148 4.55241 40.4639 4.1084C40.1201 3.66439 39.6868 3.3278 39.1641 3.09863C38.6413 2.8623 38.0648 2.74414 37.4346 2.74414C36.5824 2.74414 35.8268 2.95898 35.168 3.38867C34.5163 3.8112 34.0078 4.43424 33.6426 5.25781C33.2773 6.08138 33.0947 7.06966 33.0947 8.22266C33.0947 9.38997 33.2773 10.3854 33.6426 11.209C34.0078 12.0254 34.5163 12.6449 35.168 13.0674C35.8268 13.4899 36.5824 13.7012 37.4346 13.7012C38.0505 13.7012 38.6162 13.5902 39.1318 13.3682C39.6546 13.139 40.0915 12.8096 40.4424 12.3799C40.7933 11.9502 41.0296 11.4382 41.1514 10.8438H43.9658C43.8226 11.8464 43.4609 12.7559 42.8809 13.5723C42.3008 14.3887 41.5381 15.0332 40.5928 15.5059C39.6546 15.9785 38.5876 16.2148 37.3916 16.2148C36.0166 16.2148 34.7884 15.8962 33.707 15.2588C32.6328 14.6143 31.7913 13.6904 31.1826 12.4873C30.5811 11.277 30.2803 9.85547 30.2803 8.22266C30.2803 6.58268 30.5846 5.16113 31.1934 3.95801C31.8092 2.75488 32.6543 1.83464 33.7285 1.19727C34.8099 0.552734 36.0309 0.230469 37.3916 0.230469C38.5374 0.230469 39.5794 0.448893 40.5176 0.885742C41.4557 1.31543 42.2256 1.94206 42.8271 2.76562C43.4287 3.58203 43.8083 4.55599 43.9658 5.6875H41.1514ZM46.3721 0.445312H49.165V7.04102H56.4053V0.445312H59.2197V16H56.4053V9.38281H49.165V16H46.3721V0.445312ZM75.9775 8.22266C75.9775 9.86263 75.6696 11.2842 75.0537 12.4873C74.445 13.6904 73.5964 14.6143 72.5078 15.2588C71.4264 15.8962 70.2054 16.2148 68.8447 16.2148C67.4769 16.2148 66.2523 15.8962 65.1709 15.2588C64.0895 14.6143 63.2409 13.6904 62.625 12.4873C62.0163 11.277 61.7119 9.85547 61.7119 8.22266C61.7119 6.58268 62.0163 5.16113 62.625 3.95801C63.2409 2.74772 64.0895 1.82389 65.1709 1.18652C66.2523 0.549154 67.4769 0.230469 68.8447 0.230469C70.2054 0.230469 71.4264 0.552734 72.5078 1.19727C73.5964 1.83464 74.445 2.75488 75.0537 3.95801C75.6696 5.16113 75.9775 6.58268 75.9775 8.22266ZM64.5264 8.22266C64.5264 9.38281 64.7054 10.3747 65.0635 11.1982C65.4287 12.0218 65.9372 12.6449 66.5889 13.0674C67.2406 13.4899 67.9925 13.7012 68.8447 13.7012C69.7041 13.7012 70.4561 13.4899 71.1006 13.0674C71.7523 12.6449 72.2572 12.0218 72.6152 11.1982C72.9805 10.3747 73.1631 9.38281 73.1631 8.22266C73.1631 7.0625 72.9805 6.07064 72.6152 5.24707C72.2572 4.4235 71.7523 3.80046 71.1006 3.37793C70.4561 2.9554 69.7041 2.74414 68.8447 2.74414C67.9925 2.74414 67.2406 2.9554 66.5889 3.37793C65.9372 3.80046 65.4287 4.4235 65.0635 5.24707C64.7054 6.07064 64.5264 7.0625 64.5264 8.22266ZM91.2529 16H88.7607L81.3916 5.36523H81.2627V16H78.4697V0.445312H81.0049L88.3311 11.0801H88.4814V0.445312H91.2529V16ZM99.3525 0.445312H109.321V2.78711H102.146V7.04102H108.634V9.38281H102.146V16H99.3525V0.445312ZM111.685 0.445312H114.478V13.6367H121.353V16H111.685V0.445312ZM136.843 8.22266C136.843 9.86263 136.535 11.2842 135.919 12.4873C135.31 13.6904 134.462 14.6143 133.373 15.2588C132.292 15.8962 131.071 16.2148 129.71 16.2148C128.342 16.2148 127.118 15.8962 126.036 15.2588C124.955 14.6143 124.106 13.6904 123.49 12.4873C122.882 11.277 122.577 9.85547 122.577 8.22266C122.577 6.58268 122.882 5.16113 123.49 3.95801C124.106 2.74772 124.955 1.82389 126.036 1.18652C127.118 0.549154 128.342 0.230469 129.71 0.230469C131.071 0.230469 132.292 0.552734 133.373 1.19727C134.462 1.83464 135.31 2.75488 135.919 3.95801C136.535 5.16113 136.843 6.58268 136.843 8.22266ZM125.392 8.22266C125.392 9.38281 125.571 10.3747 125.929 11.1982C126.294 12.0218 126.802 12.6449 127.454 13.0674C128.106 13.4899 128.858 13.7012 129.71 13.7012C130.569 13.7012 131.321 13.4899 131.966 13.0674C132.618 12.6449 133.122 12.0218 133.48 11.1982C133.846 10.3747 134.028 9.38281 134.028 8.22266C134.028 7.0625 133.846 6.07064 133.48 5.24707C133.122 4.4235 132.618 3.80046 131.966 3.37793C131.321 2.9554 130.569 2.74414 129.71 2.74414C128.858 2.74414 128.106 2.9554 127.454 3.37793C126.802 3.80046 126.294 4.4235 125.929 5.24707C125.571 6.07064 125.392 7.0625 125.392 8.22266ZM137.853 0.445312H140.86L143.675 11.8965H143.825L146.812 0.445312H149.562L152.569 11.918H152.698L155.513 0.445312H158.521L154.138 16H151.366L148.251 5.06445H148.144L145.007 16H142.235L137.853 0.445312Z" fill="black"/>
<path d="M160.261 7.64258C160.984 6.85482 161.858 6.46094 162.882 6.46094C163.261 6.46094 163.627 6.51107 163.978 6.61133C164.336 6.71159 164.787 6.86198 165.331 7.0625C165.861 7.26302 166.305 7.41341 166.663 7.51367C167.021 7.61393 167.386 7.66406 167.759 7.66406C168.26 7.66406 168.726 7.5638 169.155 7.36328C169.592 7.1556 169.979 6.84766 170.315 6.43945V8.78125C169.592 9.56901 168.718 9.96289 167.694 9.96289C167.315 9.96289 166.942 9.91276 166.577 9.8125C166.212 9.71224 165.768 9.56185 165.245 9.36133C164.715 9.16081 164.271 9.01042 163.913 8.91016C163.555 8.8099 163.19 8.75977 162.817 8.75977C161.793 8.75977 160.941 9.16797 160.261 9.98438V7.64258ZM177.147 9.18945L177.319 6.0957L174.72 7.79297L173.796 6.22461L176.567 4.82812L173.796 3.41016L174.72 1.8418L177.319 3.53906L177.147 0.445312H178.974L178.802 3.53906L181.401 1.8418L182.304 3.41016L179.554 4.82812L182.304 6.22461L181.401 7.79297L178.802 6.0957L178.974 9.18945H177.147Z" fill="#004E96"/>
</svg>
