<svg width="78" height="17" viewBox="0 0 78 17" fill="none" xmlns="http://www.w3.org/2000/svg">
<path d="M0.782 16.098V1.006H10.044V3.14H3.488V7.65H8.592V9.74H3.488V16.098H0.782ZM12.2273 16.098V1.006H14.9333V13.964H21.3133V16.098H12.2273ZM29.3349 16.34C25.2649 16.34 22.5589 13.788 22.5589 8.794V8.31C22.5589 3.448 25.3529 0.763999 29.4669 0.763999C33.4929 0.763999 36.2429 3.272 36.2429 8.31V8.794C36.2429 13.678 33.4269 16.34 29.3349 16.34ZM29.4229 14.25C32.0629 14.25 33.3609 12.16 33.3609 9.08V8.332C33.3609 4.944 32.2609 2.898 29.3349 2.876C26.7169 2.876 25.4409 4.944 25.4409 8.002V8.772C25.4409 12.182 26.5409 14.25 29.4229 14.25ZM41.042 16.098L37.28 1.006H40.03L42.604 12.182H42.67L45.75 1.006H47.95L50.986 12.182H51.052L53.648 1.006H56.09L52.394 16.098H49.71L46.762 5.142H46.696L43.704 16.098H41.042Z" fill="#292929"/>
<path d="M63.45 7.364C64.242 7.914 65.078 8.596 65.958 8.596C66.728 8.596 67.476 7.738 67.586 6.506C68.246 6.748 68.774 6.946 69.434 7.166C69.148 9.718 67.586 10.752 65.98 10.73C64.968 10.686 64.11 10.334 63.428 9.85C62.724 9.3 61.624 8.508 60.964 8.442H60.986C60.15 8.332 59.336 9.08 59.094 10.29C58.5 10.004 57.95 9.718 57.378 9.454C57.95 6.858 59.644 6.088 61.162 6.308C62.196 6.462 62.834 6.858 63.45 7.364ZM73.2776 7.826L73.3876 5.494L71.4956 6.792L70.6376 5.186L72.7056 4.262L70.6376 3.316L71.4956 1.754L73.3876 3.008L73.2776 0.697999H75.0376L74.9276 3.008L76.7976 1.754L77.6776 3.316L75.6096 4.262L77.6776 5.186L76.7976 6.792L74.9276 5.494L75.0376 7.826H73.2776Z" fill="#004E96"/>
</svg>
