<svg viewBox="0 0 14 16" fill="none" xmlns="http://www.w3.org/2000/svg">
<path d="M9.25 2H1.75V14H12.25V5H9.25V2ZM0.25 1.244C0.25 0.833 0.58525 0.5 0.99925 0.5H10L13.75 4.25V14.7447C13.7507 14.8432 13.732 14.9409 13.6949 15.0322C13.6579 15.1234 13.6032 15.2065 13.534 15.2766C13.4649 15.3468 13.3826 15.4026 13.2919 15.4409C13.2011 15.4792 13.1037 15.4993 13.0052 15.5H0.99475C0.797784 15.4986 0.609263 15.4198 0.469913 15.2806C0.330563 15.1414 0.251571 14.953 0.25 14.756V1.244ZM11.2428 8L8.59075 10.652L7.53025 9.59075L9.121 8L7.531 6.40925L8.59075 5.348L11.2428 8ZM2.75725 8L5.41 5.348L6.4705 6.40925L4.879 8L6.469 9.59075L5.40925 10.652L2.75725 8Z" fill="black"/>
</svg>
