<svg  viewBox="0 0 9 12" fill="none" xmlns="http://www.w3.org/2000/svg">
<path d="M0.25 0.894531H4.30762C5.05469 0.894531 5.68457 1.01172 6.19727 1.24609C6.71484 1.48047 7.10059 1.80518 7.35449 2.22021C7.61328 2.63525 7.74512 3.11133 7.75 3.64844C7.74512 4.26367 7.57178 4.76172 7.22998 5.14258C6.89307 5.51855 6.44629 5.77246 5.88965 5.9043V6.00684C6.27539 6.02637 6.6416 6.14355 6.98828 6.3584C7.33984 6.57324 7.62305 6.87598 7.83789 7.2666C8.05273 7.65234 8.16016 8.10156 8.16016 8.61426C8.16016 9.17578 8.02344 9.67383 7.75 10.1084C7.48145 10.543 7.07617 10.8848 6.53418 11.1338C5.99219 11.3779 5.32812 11.5 4.54199 11.5H0.25V0.894531ZM4.24902 9.90332C4.91797 9.90332 5.41357 9.77637 5.73584 9.52246C6.05811 9.26367 6.22168 8.91211 6.22656 8.46777C6.22168 8.15039 6.14111 7.86475 5.98486 7.61084C5.82861 7.35693 5.604 7.15674 5.31104 7.01025C5.01807 6.85889 4.67871 6.7832 4.29297 6.7832H2.1543V9.90332H4.24902ZM4.07324 5.40625C4.41016 5.40625 4.71045 5.34521 4.97412 5.22314C5.24268 5.09619 5.45508 4.91797 5.61133 4.68848C5.76758 4.45898 5.8457 4.19043 5.8457 3.88281C5.84082 3.46289 5.68945 3.12354 5.3916 2.86475C5.09375 2.60596 4.66895 2.47656 4.11719 2.47656H2.1543V5.40625H4.07324Z" fill="black"/>
</svg>
