<svg width="28" height="16" viewBox="0 0 28 16" fill="none" xmlns="http://www.w3.org/2000/svg">
<path d="M0.701172 13.5L3.44043 5.72266H5.15918L7.90918 13.5H6.41602L5.76611 11.5771H2.83887L2.19434 13.5H0.701172ZM5.39014 10.4492L4.33203 7.3125H4.26758L3.21484 10.4492H5.39014ZM8.40625 13.5L12.1416 2.89453H14.4854L18.2354 13.5H16.1992L15.313 10.8779H11.3213L10.4424 13.5H8.40625ZM14.8003 9.33984L13.3574 5.0625H13.2695L11.834 9.33984H14.8003Z" fill="black"/>
<path d="M19.25 6.475L19.5081 6.125L26.5044 6.125L26.75 6.4625L23.2331 9.875L22.7162 9.875L19.25 6.475Z" fill="black"/>
</svg>
