<svg  viewBox="0 0 15 15" fill="none" xmlns="http://www.w3.org/2000/svg">
<path d="M0 2.5C0 1.39688 0.84082 0.5 1.875 0.5H13.125C14.1592 0.5 15 1.39688 15 2.5V12.5C15 13.6031 14.1592 14.5 13.125 14.5H1.875C0.84082 14.5 0 13.6031 0 12.5V2.5ZM9.48633 5.82812C9.35449 5.62187 9.1377 5.5 8.90625 5.5C8.6748 5.5 8.45508 5.62187 8.32617 5.82812L5.77734 9.81563L5.00098 8.78125C4.86621 8.60312 4.66406 8.5 4.45312 8.5C4.24219 8.5 4.03711 8.60312 3.90527 8.78125L2.03027 11.2812C1.86035 11.5063 1.82812 11.8156 1.94531 12.075C2.0625 12.3344 2.30859 12.5 2.57812 12.5H12.4219C12.6826 12.5 12.9229 12.3469 13.043 12.1C13.1631 11.8531 13.1484 11.5562 13.002 11.3281L9.48633 5.82812ZM3.28125 5.5C3.65421 5.5 4.0119 5.34196 4.27562 5.06066C4.53934 4.77936 4.6875 4.39782 4.6875 4C4.6875 3.60218 4.53934 3.22064 4.27562 2.93934C4.0119 2.65804 3.65421 2.5 3.28125 2.5C2.90829 2.5 2.5506 2.65804 2.28688 2.93934C2.02316 3.22064 1.875 3.60218 1.875 4C1.875 4.39782 2.02316 4.77936 2.28688 5.06066C2.5506 5.34196 2.90829 5.5 3.28125 5.5Z" fill="black"/>
</svg>
