<svg width="17" height="14" viewBox="0 0 17 14" fill="none" xmlns="http://www.w3.org/2000/svg">
<path d="M7.7815 11.0335C7.85579 11.1075 7.91473 11.1955 7.95495 11.2923C7.99517 11.3892 8.01588 11.4931 8.01588 11.5979C8.01588 11.7028 7.99517 11.8067 7.95495 11.9035C7.91473 12.0004 7.85579 12.0884 7.7815 12.1624L7.4415 12.5024C7.08058 12.8646 6.65142 13.1518 6.17885 13.3471C5.70628 13.5425 5.19966 13.6422 4.6883 13.6406C3.9182 13.6408 3.16534 13.4127 2.52496 12.9849C1.88457 12.5572 1.38543 11.9492 1.0907 11.2377C0.795965 10.5263 0.718874 9.74336 0.869179 8.98808C1.01948 8.2328 1.39043 7.53907 1.93509 6.99466L4.24271 4.68704C4.73354 4.19628 5.34662 3.84563 6.01849 3.67139C6.69035 3.49715 7.39658 3.50566 8.06405 3.69603C8.73152 3.88639 9.33598 4.2517 9.81485 4.75414C10.2937 5.25658 10.6296 5.87788 10.7877 6.55372C10.8139 6.65648 10.8193 6.76343 10.8036 6.86831C10.788 6.97319 10.7515 7.07388 10.6964 7.16449C10.6413 7.2551 10.5687 7.3338 10.4828 7.39598C10.3969 7.45817 10.2995 7.50258 10.1962 7.52662C10.0929 7.55066 9.98586 7.55385 9.88133 7.53599C9.7768 7.51814 9.67688 7.4796 9.58744 7.42263C9.498 7.36567 9.42082 7.29142 9.36044 7.20425C9.30006 7.11708 9.25768 7.01873 9.2358 6.91497C9.14198 6.51602 8.9433 6.14937 8.66032 5.85292C8.37733 5.55647 8.0203 5.34099 7.62614 5.22874C7.23198 5.11649 6.815 5.11155 6.41829 5.21443C6.02158 5.31732 5.65955 5.52429 5.36962 5.81395L3.06201 8.12157C2.74034 8.44297 2.52121 8.85255 2.43233 9.2985C2.34345 9.74445 2.38881 10.2067 2.56268 10.6269C2.73655 11.0471 3.03111 11.4062 3.40911 11.659C3.78712 11.9117 4.23159 12.0467 4.6863 12.0468C4.98844 12.0477 5.28775 11.9887 5.56691 11.8731C5.84606 11.7575 6.09952 11.5877 6.31259 11.3735L6.65193 11.0335C6.72597 10.9591 6.81398 10.9001 6.91091 10.8598C7.00783 10.8195 7.11176 10.7988 7.21671 10.7988C7.32167 10.7988 7.4256 10.8195 7.52252 10.8598C7.61944 10.9001 7.70746 10.9591 7.7815 11.0335ZM15.0629 1.49954C14.3326 0.769413 13.3421 0.359253 12.3094 0.359253C11.2767 0.359253 10.2862 0.769413 9.55587 1.49954L9.21654 1.83888C9.06684 1.98858 8.98273 2.19162 8.98273 2.40333C8.98273 2.61504 9.06684 2.81808 9.21654 2.96778C9.36624 3.11748 9.56928 3.20159 9.78099 3.20159C9.9927 3.20159 10.1957 3.11748 10.3454 2.96778L10.6854 2.62778C11.1169 2.19629 11.7022 1.95388 12.3124 1.95388C12.9226 1.95388 13.5079 2.19629 13.9394 2.62778C14.3708 3.05928 14.6133 3.64451 14.6133 4.25473C14.6133 4.86496 14.3708 5.45019 13.9394 5.88169L11.6278 8.18598C11.4147 8.4002 11.1612 8.57001 10.8821 8.68559C10.6029 8.80117 10.3036 8.86023 10.0015 8.85934C9.48316 8.85898 8.98018 8.68353 8.57409 8.36146C8.168 8.03938 7.88262 7.58957 7.76423 7.08497C7.71633 6.87908 7.5886 6.70066 7.40914 6.58895C7.22969 6.47725 7.0132 6.4414 6.80732 6.48931C6.60144 6.53721 6.42301 6.66494 6.3113 6.8444C6.1996 7.02385 6.16375 7.24033 6.21166 7.44622C6.41161 8.30078 6.89438 9.06275 7.58168 9.60853C8.26898 10.1543 9.12049 10.4519 9.99814 10.4531H10.0015C10.5131 10.4545 11.0199 10.3544 11.4926 10.1587C11.9653 9.96303 12.3944 9.67554 12.7553 9.3129L15.0629 7.00528C15.4245 6.6438 15.7113 6.21463 15.907 5.74229C16.1027 5.26994 16.2034 4.76368 16.2034 4.25241C16.2034 3.74114 16.1027 3.23488 15.907 2.76253C15.7113 2.29019 15.4245 1.86102 15.0629 1.49954Z" fill="black"/>
</svg>
