<svg width="14" height="11" viewBox="0 0 14 11" fill="none" xmlns="http://www.w3.org/2000/svg">
<path fill-rule="evenodd" clip-rule="evenodd" d="M2 1C2 1.26522 1.89464 1.51957 1.70711 1.70711C1.51957 1.89464 1.26522 2 1 2C0.734784 2 0.48043 1.89464 0.292893 1.70711C0.105357 1.51957 0 1.26522 0 1C0 0.734784 0.105357 0.48043 0.292893 0.292893C0.48043 0.105357 0.734784 0 1 0C1.26522 0 1.51957 0.105357 1.70711 0.292893C1.89464 0.48043 2 0.734784 2 1ZM1 6.5C1.26522 6.5 1.51957 6.39464 1.70711 6.20711C1.89464 6.01957 2 5.76522 2 5.5C2 5.23478 1.89464 4.98043 1.70711 4.79289C1.51957 4.60536 1.26522 4.5 1 4.5C0.734784 4.5 0.48043 4.60536 0.292893 4.79289C0.105357 4.98043 0 5.23478 0 5.5C0 5.76522 0.105357 6.01957 0.292893 6.20711C0.48043 6.39464 0.734784 6.5 1 6.5ZM1 11C1.26522 11 1.51957 10.8946 1.70711 10.7071C1.89464 10.5196 2 10.2652 2 10C2 9.73478 1.89464 9.48043 1.70711 9.29289C1.51957 9.10536 1.26522 9 1 9C0.734784 9 0.48043 9.10536 0.292893 9.29289C0.105357 9.48043 0 9.73478 0 10C0 10.2652 0.105357 10.5196 0.292893 10.7071C0.48043 10.8946 0.734784 11 1 11ZM4.75 0.25C4.55109 0.25 4.36032 0.329018 4.21967 0.46967C4.07902 0.610322 4 0.801088 4 1C4 1.19891 4.07902 1.38968 4.21967 1.53033C4.36032 1.67098 4.55109 1.75 4.75 1.75H13.25C13.4489 1.75 13.6397 1.67098 13.7803 1.53033C13.921 1.38968 14 1.19891 14 1C14 0.801088 13.921 0.610322 13.7803 0.46967C13.6397 0.329018 13.4489 0.25 13.25 0.25H4.75ZM4 5.5C4 5.30109 4.07902 5.11032 4.21967 4.96967C4.36032 4.82902 4.55109 4.75 4.75 4.75H13.25C13.4489 4.75 13.6397 4.82902 13.7803 4.96967C13.921 5.11032 14 5.30109 14 5.5C14 5.69891 13.921 5.88968 13.7803 6.03033C13.6397 6.17098 13.4489 6.25 13.25 6.25H4.75C4.55109 6.25 4.36032 6.17098 4.21967 6.03033C4.07902 5.88968 4 5.69891 4 5.5ZM4.75 9.25C4.55109 9.25 4.36032 9.32902 4.21967 9.46967C4.07902 9.61032 4 9.80109 4 10C4 10.1989 4.07902 10.3897 4.21967 10.5303C4.36032 10.671 4.55109 10.75 4.75 10.75H13.25C13.4489 10.75 13.6397 10.671 13.7803 10.5303C13.921 10.3897 14 10.1989 14 10C14 9.80109 13.921 9.61032 13.7803 9.46967C13.6397 9.32902 13.4489 9.25 13.25 9.25H4.75Z" fill="black"/>
</svg>
