<svg width="15" height="11" viewBox="0 0 15 11" fill="none" xmlns="http://www.w3.org/2000/svg">
<path fill-rule="evenodd" clip-rule="evenodd" d="M4.10681 9.41074C4.10681 9.27459 4.1609 9.14402 4.25717 9.04774C4.35344 8.95147 4.48401 8.89739 4.62016 8.89739H13.8604C13.9966 8.89739 14.1271 8.95147 14.2234 9.04774C14.3197 9.14402 14.3738 9.27459 14.3738 9.41074C14.3738 9.54688 14.3197 9.67746 14.2234 9.77373C14.1271 9.87 13.9966 9.92408 13.8604 9.92408H4.62016C4.48401 9.92408 4.35344 9.87 4.25717 9.77373C4.1609 9.67746 4.10681 9.54688 4.10681 9.41074ZM4.10681 5.30396C4.10681 5.16781 4.1609 5.03724 4.25717 4.94097C4.35344 4.8447 4.48401 4.79061 4.62016 4.79061H13.8604C13.9966 4.79061 14.1271 4.8447 14.2234 4.94097C14.3197 5.03724 14.3738 5.16781 14.3738 5.30396C14.3738 5.44011 14.3197 5.57068 14.2234 5.66695C14.1271 5.76322 13.9966 5.81731 13.8604 5.81731H4.62016C4.48401 5.81731 4.35344 5.76322 4.25717 5.66695C4.1609 5.57068 4.10681 5.44011 4.10681 5.30396ZM4.10681 1.19718C4.10681 1.06104 4.1609 0.930465 4.25717 0.834194C4.35344 0.737923 4.48401 0.683838 4.62016 0.683838H13.8604C13.9966 0.683838 14.1271 0.737923 14.2234 0.834194C14.3197 0.930465 14.3738 1.06104 14.3738 1.19718C14.3738 1.33333 14.3197 1.4639 14.2234 1.56018C14.1271 1.65645 13.9966 1.71053 13.8604 1.71053H4.62016C4.48401 1.71053 4.35344 1.65645 4.25717 1.56018C4.1609 1.4639 4.10681 1.33333 4.10681 1.19718Z" fill="black"/>
<path d="M0.732033 9.78542V9.29877H1.02669C1.24949 9.29877 1.39938 9.15811 1.39938 8.9733C1.39938 8.78337 1.23717 8.65503 1.02875 8.65503C0.799795 8.65503 0.651951 8.81109 0.64579 8.9733H0.0400411C0.0564682 8.49384 0.422998 8.1653 1.05236 8.1653C1.65606 8.16324 2.03183 8.46406 2.03491 8.88706C2.03685 9.03214 1.98709 9.17318 1.89454 9.28492C1.80199 9.39666 1.67268 9.47182 1.52977 9.49692V9.5308C1.6918 9.54288 1.84293 9.61696 1.95173 9.73762C2.06053 9.85828 2.11864 10.0162 2.11396 10.1786C2.11704 10.7259 1.59856 11 1.03491 11C0.361396 11 0.00821355 10.6201 0 10.1848H0.597536C0.605749 10.3676 0.788501 10.499 1.0308 10.5021C1.29158 10.5021 1.46612 10.3532 1.46407 10.1427C1.46201 9.9425 1.30493 9.78542 1.03901 9.78542H0.731006H0.732033ZM0.727926 4.96098H0.107803V4.92505C0.107803 4.50616 0.410678 4.05852 1.09138 4.05852C1.68994 4.05852 2.077 4.39322 2.077 4.8347C2.077 5.23409 1.81314 5.46817 1.5883 5.70534L1.03696 6.29261V6.32341H2.1191V6.84394H0.146817V6.4384L1.12936 5.42197C1.27105 5.27618 1.43018 5.10986 1.43018 4.90041C1.43018 4.7156 1.27926 4.57187 1.07906 4.57187C1.03284 4.57017 0.98676 4.57796 0.943664 4.59474C0.900568 4.61153 0.861364 4.63696 0.828469 4.66947C0.795574 4.70198 0.769683 4.74088 0.752391 4.78378C0.7351 4.82667 0.726774 4.87265 0.727926 4.91889V4.96098ZM1.60575 2.73717H0.953799V0.605749H0.921971L0.308008 1.03696V0.454825L0.953799 0H1.60575V2.73717Z" fill="black"/>
</svg>
