<svg width="15" height="15" viewBox="0 0 15 15" fill="none" xmlns="http://www.w3.org/2000/svg">
<path d="M7.5 15C5.51088 15 3.60322 14.2098 2.1967 12.8033C0.790176 11.3968 0 9.48912 0 7.5C0 5.51088 0.790176 3.60322 2.1967 2.1967C3.60322 0.790176 5.51088 0 7.5 0C9.48912 0 11.3968 0.790176 12.8033 2.1967C14.2098 3.60322 15 5.51088 15 7.5C15 9.48912 14.2098 11.3968 12.8033 12.8033C11.3968 14.2098 9.48912 15 7.5 15ZM9 5.25C9 5.46 8.8425 5.85 8.685 6L7.5 7.185C7.0725 7.62 6.75 8.385 6.75 9V9.75H8.25V9C8.25 8.7825 8.4075 8.4 8.565 8.25L9.75 7.065C10.1775 6.63 10.5 5.865 10.5 5.25C10.5 4.45435 10.1839 3.69129 9.62132 3.12868C9.05871 2.56607 8.29565 2.25 7.5 2.25C6.70435 2.25 5.94129 2.56607 5.37868 3.12868C4.81607 3.69129 4.5 4.45435 4.5 5.25H6C6 4.85218 6.15804 4.47064 6.43934 4.18934C6.72064 3.90804 7.10218 3.75 7.5 3.75C7.89782 3.75 8.27936 3.90804 8.56066 4.18934C8.84196 4.47064 9 4.85218 9 5.25ZM6.75 11.25V12.75H8.25V11.25H6.75Z" fill="black"/>
</svg>
