<svg  viewBox="0 0 17 14" fill="none" xmlns="http://www.w3.org/2000/svg">
<path d="M11.3333 7.3421L15.5054 7.3421C15.3738 8.18892 15.0607 8.99991 14.5863 9.72327C14.1118 10.4466 13.4864 11.0665 12.75 11.5432L11.4821 12.3642L12.2613 13.5L13.5292 12.6789C14.5964 11.9919 15.4716 11.0611 16.0771 9.96898C16.6826 8.87687 16.9996 7.65727 17 6.41842V1.86842C17 1.50549 16.8507 1.15743 16.5851 0.900802C16.3194 0.644173 15.9591 0.5 15.5833 0.5H11.3333C10.9576 0.5 10.5973 0.644173 10.3316 0.900802C10.0659 1.15743 9.91667 1.50549 9.91667 1.86842L9.91667 5.97368C9.91667 6.33661 10.0659 6.68467 10.3316 6.9413C10.5973 7.19793 10.9576 7.3421 11.3333 7.3421ZM1.41667 7.3421H5.58875C5.45711 8.18892 5.14407 8.99991 4.66963 9.72327C4.19518 10.4466 3.56977 11.0665 2.83333 11.5432L1.56542 12.3642L2.3375 13.5L3.6125 12.6789C4.67976 11.9919 5.55496 11.0611 6.16042 9.96898C6.76589 8.87687 7.0829 7.65727 7.08333 6.41842L7.08333 1.86842C7.08333 1.50549 6.93408 1.15743 6.6684 0.900802C6.40273 0.644173 6.04239 0.5 5.66667 0.5H1.41667C1.04094 0.5 0.680609 0.644173 0.414932 0.900802C0.149256 1.15743 0 1.50549 0 1.86842V5.97368C0 6.33661 0.149256 6.68467 0.414932 6.9413C0.680609 7.19793 1.04094 7.3421 1.41667 7.3421Z" fill="black"/>
</svg>
