<svg width="13" height="14" viewBox="0 0 13 14" fill="none" xmlns="http://www.w3.org/2000/svg">
<path d="M1.71818 13.5C1.26249 13.5 0.825466 13.3667 0.503244 13.1293C0.181022 12.892 0 12.57 0 12.2344L0 1.26562C0 0.92996 0.181022 0.608044 0.503244 0.370693C0.825466 0.133343 1.26249 0 1.71818 0H10.8818C11.3375 0 11.7745 0.133343 12.0968 0.370693C12.419 0.608044 12.6 0.92996 12.6 1.26562V12.2344C12.6 12.57 12.419 12.892 12.0968 13.1293C11.7745 13.3667 11.3375 13.5 10.8818 13.5H1.71818ZM1.14545 12.2344C1.14545 12.3463 1.2058 12.4536 1.3132 12.5327C1.42061 12.6118 1.56629 12.6562 1.71818 12.6562H5.72727V9.28125H1.14545L1.14545 12.2344ZM6.87273 9.28125V12.6562H10.8818C11.0337 12.6562 11.1794 12.6118 11.2868 12.5327C11.3942 12.4536 11.4545 12.3463 11.4545 12.2344V9.28125H6.87273ZM6.87273 8.4375H11.4545V5.0625H6.87273L6.87273 8.4375ZM5.72727 5.0625H1.14545L1.14545 8.4375H5.72727L5.72727 5.0625ZM6.87273 4.21875H11.4545V1.26562C11.4545 1.15374 11.3942 1.04643 11.2868 0.967314C11.1794 0.888197 11.0337 0.84375 10.8818 0.84375H6.87273V4.21875ZM5.72727 4.21875V0.84375H1.71818C1.56629 0.84375 1.42061 0.888197 1.3132 0.967314C1.2058 1.04643 1.14545 1.15374 1.14545 1.26562V4.21875H5.72727Z" fill="black"/>
</svg>
